<svg xmlns="http://www.w3.org/2000/svg" viewBox="3.9929404258728027 3.9996485710144043 56.00706100463867 56.00035095214844" x="0" y="0" height="132.19529021558873" width="132.2111300687544" class="icon-icon-0" data-fill-palette-color="accent" id="icon-0"><g fill="#ed2647" data-fill-palette-color="accent"><path d="M49 13.916c-0.384-0.614-0.731-1.258-1.059-1.916H49ZM31 22V18a2 2 0 1 0 0 4Zm3.838-12H48.9c0-0.018-0.009-0.036-0.012-0.054A5.006 5.006 0 0 0 44 6H41.443a9.047 9.047 0 0 1-5.031-1.523A2.837 2.837 0 0 0 32 6.838v0.324A2.841 2.841 0 0 0 34.838 10ZM44 24H38a5.008 5.008 0 0 0-4.9 4H35a4.933 4.933 0 0 0 3.048-1.043A4.308 4.308 0 0 1 40.691 26h0.618a4.308 4.308 0 0 1 2.643 0.957A4.937 4.937 0 0 0 47 28h1.9A5.008 5.008 0 0 0 44 24Zm-1.273 4.537A2.374 2.374 0 0 0 41.309 28h-0.618a2.368 2.368 0 0 0-1.417 0.537A6.914 6.914 0 0 1 35 30H33.932c0.161 0.765 0.334 1.515 0.531 2.222l0.7 2.564A3 3 0 0 0 38.06 37h5.88a3 3 0 0 0 2.894-2.211l0.7-2.561c0.2-0.712 0.371-1.462 0.533-2.228H47A6.915 6.915 0 0 1 42.727 28.537ZM33 12v1.916c0.4-0.637 0.756-1.307 1.094-1.991a4.821 4.821 0 0 1-1.067-0.284C33.019 11.762 33 11.875 33 12Zm20 8a2 2 0 0 0-2-2v4A2 2 0 0 0 53 20ZM40.388 22l1.56-4.684-1.9-0.632L38.28 22H38a6.953 6.953 0 0 0-2.813 0.595 1.462 1.462 0 0 1-0.53-0.521L33.111 17.2A24.571 24.571 0 0 0 36.268 12h9.464A24.58 24.58 0 0 0 48.9 17.21l-1.46 5.111a1.509 1.509 0 0 1-0.41 0.379A6.939 6.939 0 0 0 44 22H40.388ZM44 18.5A1.5 1.5 0 1 0 45.5 17 1.5 1.5 0 0 0 44 18.5Zm-6 0A1.5 1.5 0 1 0 36.5 20 1.5 1.5 0 0 0 38 18.5ZM25.217 21.3a29.071 29.071 0 0 0 0.724-14.959l-5.878 16.49 2.473 6.937Zm18.745 30.16a3.323 3.323 0 0 0-1.064 1.18l3.841 0.768 0.315-1.576 1.961 0.392L48.7 53.8l1.636 0.327a2.737 2.737 0 1 1 2.307 4.219 2.785 2.785 0 0 1-0.543-0.054 2.722 2.722 0 0 1-2.156-2.2l-1.637-0.327-0.315 1.576-1.961-0.392 0.315-1.576L42.508 54.6a3.342 3.342 0 0 0 1.924 2.68l0.442 0.155c0.1 0.029 0.187 0.068 0.288 0.088l0 0.012L52.171 60H58a2 2 0 0 0 2-2V51.931L45.678 50.908A3.317 3.317 0 0 0 43.962 51.458ZM32.553 49.9L26.844 47.04 22 47.847v5.676l3.629-1.452a1 1 0 0 1 0.557-0.054l7 1.318a1.09 1.09 0 0 1 0.146 0.04L40.788 56a5.28 5.28 0 0 1-0.312-1.8L38.8 53.858 39.2 51.9l1.672 0.335a5.244 5.244 0 0 1 1.023-1.594L32.929 50A1.023 1.023 0 0 1 32.553 49.9Zm2.234 8.361l3.2-1.125-2.321-0.816A7.827 7.827 0 0 1 34.787 58.256Zm21.2-21.235l-7.307-1.462A4.993 4.993 0 0 1 43.94 39H38.06a5 5 0 0 1-4.739-3.449l-7.3 1.47a4.479 4.479 0 0 0-0.81 0.238l2.92 8.187 0.872 0.436V43h2v3.764A7.891 7.891 0 0 1 32.825 47.8l0.445 0.222 5.074 0.362 10.4-0.371L50 47.382V43h2v3.382l2.553-1.277a0.986 0.986 0 0 1 0.611-0.091L60 45.82v-3.9A5.008 5.008 0 0 0 55.983 37.021ZM50.711 49.262L60 49.926V47.847l-4.844-0.807Zm1.781 7.067a0.738 0.738 0 0 0 0.289-1.448 0.8 0.8 0 0 0-0.146-0.014 0.738 0.738 0 0 0-0.143 1.462ZM13.175 47.95a1 1 0 0 0 0.373 1.214 5.882 5.882 0 0 1 2.665 5.315 5.815 5.815 0 0 1-2.1 4.026 6.211 6.211 0 0 1-4.566 1.469 6.122 6.122 0 0 1-4.234-2.226 5.765 5.765 0 0 1-1.284-4.315 6.085 6.085 0 0 1 6.08-5.287c0.063 0 0.125 0 0.187 0a0.945 0.945 0 0 0 0.971-0.663l4.08-11.426 0.5 1.571a0.994 0.994 0 0 0 0.5 0.591 8.945 8.945 0 0 1 1.161 0.715 10.541 10.541 0 0 0-1.855 2.973Zm-2.622 2.176A4.043 4.043 0 0 0 6.09 53.638h0a3.891 3.891 0 0 0 0.844 2.888 4.073 4.073 0 0 0 7.207-2.02 3.891 3.891 0 0 0-0.843-2.889A4.041 4.041 0 0 0 10.553 50.126Zm-0.211 1.989a2.033 2.033 0 0 0-2.264 1.746 1.9 1.9 0 0 0 0.415 1.414 2.049 2.049 0 0 0 1.4 0.755 2.023 2.023 0 0 0 2.262-1.746 1.9 1.9 0 0 0-0.414-1.414A2.047 2.047 0 0 0 10.342 52.115ZM21.957 41.094v0l0 0c-0.006-0.011-0.01-0.023-0.017-0.034a0.586 0.586 0 0 0-0.032-0.067 10.177 10.177 0 0 0-2.228-2.874 10.645 10.645 0 0 0-2.048-1.476l-1.239-3.924a0.844 0.844 0 0 0-0.028-0.107L12.784 21.3A29.114 29.114 0 0 1 12.06 6.343L25.905 45.169l-2.081 0.347-1.48-3.609C22.226 41.624 22.1 41.358 21.957 41.094ZM20 32H18v2h2ZM31.779 55.106a3.985 3.985 0 0 1-3.461 2.909A4.041 4.041 0 0 1 23.939 54.9l-1.916 0.767A6.2 6.2 0 0 0 27.9 60c0.181 0 0.361-0.008 0.549-0.026a6.1 6.1 0 0 0 5.311-4.328l-1.02-0.359Zm-3.666 0.92a2.013 2.013 0 0 0 1.7-1.29l-3.714-0.7-0.251 0.1c0 0.048-0.013 0.095-0.007 0.142A2.035 2.035 0 0 0 28.113 56.026Z" fill="#ed2647" data-fill-palette-color="accent"></path></g></svg>